{"glyphs":{":":{"x_min":0,"x_max":294,"ha":294,"o":"m 48 346 l 246 346 l 246 541 l 48 541 z m 48 0 l 246 0 l 246 195 l 48 195 z"},"$":{"x_min":0,"x_max":666,"ha":666,"o":"m 295 -98 l 399 -98 l 399 0 b 541 13 635 88 635 210 l 635 212 b 635 336 555 393 396 430 l 396 546 b 441 535 489 515 530 486 l 612 620 b 552 661 483 689 401 698 l 401 758 l 297 758 l 297 701 b 144 690 58 608 58 490 l 58 488 b 58 364 140 309 301 272 l 301 152 b 239 162 179 189 115 234 l 25 101 b 100 47 197 12 295 2 z m 302 447 b 248 462 234 477 234 503 l 234 505 b 234 531 253 551 302 555 z m 395 146 l 395 256 b 447 241 462 226 462 199 l 462 197 b 462 168 441 151 395 146 z"},"?":{"x_min":0,"x_max":540,"ha":540,"o":"m 191 228 l 312 228 l 324 292 b 435 319 519 373 519 499 l 519 501 b 519 631 416 711 269 711 b 154 711 71 667 10 606 l 110 474 b 157 516 209 540 256 540 b 304 540 331 519 331 485 l 331 484 b 331 441 290 414 174 404 l 166 395 z m 150 0 l 347 0 l 347 170 l 150 170 z"},"<":{"x_min":0,"x_max":640,"ha":640,"o":"m 560 66 l 560 243 l 233 352 l 560 462 l 560 638 l 63 440 l 63 264 z"},"'":{"x_min":0,"x_max":284,"ha":284,"o":"m 34 341 l 137 341 l 264 695 l 264 700 l 56 700 z"},"=":{"x_min":0,"x_max":640,"ha":640,"o":"m 63 403 l 577 403 l 577 568 l 63 568 z m 63 137 l 577 137 l 577 301 l 63 301 z"},"a":{"x_min":0,"x_max":599,"ha":599,"o":"m 206 -12 b 277 -12 328 15 365 56 l 365 0 l 553 0 l 553 311 b 553 387 536 443 495 483 b 452 526 386 549 289 549 b 196 549 131 532 70 507 l 109 373 b 157 392 201 403 258 403 b 331 403 366 371 366 315 l 366 306 b 335 317 286 327 236 327 b 109 327 24 269 24 157 l 24 155 b 24 47 103 -12 206 -12 z m 274 107 b 235 107 207 129 207 166 l 207 168 b 207 208 239 235 294 235 b 322 235 349 229 368 221 l 368 196 b 368 142 329 107 274 107 z"},"L":{"x_min":0,"x_max":616,"ha":616,"o":"m 62 0 l 595 0 l 595 170 l 256 170 l 256 700 l 62 700 z"},"3":{"x_min":0,"x_max":621,"ha":621,"o":"m 316 -14 b 472 -14 586 77 586 219 l 586 221 b 586 340 505 396 405 418 l 572 561 l 572 700 l 66 700 l 66 543 l 334 543 l 173 398 l 201 297 l 283 297 b 356 297 397 270 397 225 l 397 223 b 397 180 362 152 307 152 b 243 152 190 181 140 232 l 18 110 b 86 35 181 -14 316 -14 z"},";":{"x_min":0,"x_max":294,"ha":294,"o":"m 48 346 l 246 346 l 246 541 l 48 541 z m 40 -167 b 165 -163 246 -112 246 36 l 246 195 l 48 195 l 48 0 l 125 0 b 127 -54 92 -86 25 -94 z"},"J":{"x_min":0,"x_max":564,"ha":564,"o":"m 250 -12 b 330 -12 396 13 442 59 b 489 106 511 168 511 256 l 511 700 l 318 700 l 318 257 b 318 192 287 159 238 159 b 195 159 163 183 129 224 l 4 106 b 53 39 128 -12 250 -12 z"},"V":{"x_min":0,"x_max":760,"ha":760,"o":"m 290 -5 l 470 -5 l 754 700 l 541 700 l 382 257 l 223 700 l 6 700 z"},"\"":{"x_min":0,"x_max":537,"ha":537,"o":"m 290 341 l 390 341 l 517 695 l 517 700 l 313 700 z m 34 341 l 133 341 l 260 695 l 260 700 l 56 700 z"},"7":{"x_min":0,"x_max":614,"ha":614,"o":"m 62 0 l 276 0 l 585 554 l 585 700 l 46 700 l 46 537 l 370 537 z"},"S":{"x_min":0,"x_max":652,"ha":652,"o":"m 337 -12 b 507 -12 620 73 620 216 l 620 218 b 620 349 520 401 359 436 b 262 458 238 472 238 504 l 238 506 b 238 531 261 551 308 551 b 370 551 440 527 504 482 l 601 619 b 525 680 432 712 313 712 b 145 712 42 618 42 488 l 42 486 b 42 342 157 300 306 266 b 401 244 424 228 424 199 l 424 197 b 424 167 396 149 344 149 b 263 149 186 178 117 233 l 9 104 b 95 27 213 -12 337 -12 z"},"}":{"x_min":0,"x_max":490,"ha":490,"o":"m 61 -141 b 261 -117 325 -58 325 52 b 325 67 322 109 322 126 b 322 202 362 224 440 224 l 456 224 l 456 350 l 440 350 b 362 350 322 372 322 448 b 322 465 325 507 325 522 b 325 632 261 691 61 715 l 32 604 b 139 580 156 553 156 491 b 156 474 153 442 153 421 b 153 348 192 307 265 287 b 192 267 153 226 153 153 b 153 132 156 100 156 83 b 156 21 139 -6 32 -30 z"},"Z":{"x_min":0,"x_max":698,"ha":698,"o":"m 40 0 l 659 0 l 659 164 l 308 164 l 659 559 l 659 700 l 52 700 l 52 536 l 391 536 l 40 141 z"},"x":{"x_min":0,"x_max":589,"ha":589,"o":"m 8 0 l 208 0 l 293 139 l 377 0 l 581 0 l 399 274 l 577 541 l 376 541 l 296 408 l 216 541 l 11 541 l 190 273 z"},")":{"x_min":0,"x_max":445,"ha":445,"o":"m 109 -141 b 296 -43 401 84 401 287 b 401 490 296 617 109 715 l 30 597 b 159 508 215 418 215 287 b 215 156 159 66 30 -23 z"},"&":{"x_min":0,"x_max":698,"ha":698,"o":"m 551 -14 l 682 80 l 588 173 b 621 218 651 268 680 321 l 552 385 b 531 345 509 307 486 274 l 408 350 b 490 388 545 446 545 532 l 545 534 b 545 636 464 714 337 714 b 200 714 117 626 117 524 l 117 522 b 117 477 131 434 163 388 b 68 345 21 279 21 192 l 21 190 b 21 63 128 -12 271 -12 b 352 -12 420 14 479 59 z m 317 437 b 293 467 281 490 281 517 l 281 519 b 281 556 304 581 337 581 b 369 581 391 559 391 525 l 391 523 b 391 486 367 459 317 437 z m 297 131 b 249 131 215 159 215 200 l 215 202 b 215 230 230 257 265 278 l 380 161 b 353 143 325 131 297 131 z"},"_":{"x_min":0,"x_max":600,"ha":600,"o":"m -2 -160 l 602 -160 l 602 -44 l -2 -44 z"},"v":{"x_min":0,"x_max":625,"ha":625,"o":"m 226 -4 l 399 -4 l 615 541 l 418 541 l 314 225 l 210 541 l 10 541 z"},"O":{"x_min":0,"x_max":831,"ha":831,"o":"m 414 -14 b 630 -14 792 149 792 350 l 792 352 b 792 553 632 714 416 714 b 200 714 38 551 38 350 l 38 348 b 38 147 198 -14 414 -14 z m 416 161 b 310 161 237 249 237 350 l 237 352 b 237 453 308 539 414 539 b 521 539 594 451 594 350 l 594 348 b 594 247 523 161 416 161 z"},"(":{"x_min":0,"x_max":445,"ha":445,"o":"m 336 -141 l 415 -23 b 286 66 230 156 230 287 b 230 418 286 508 415 597 l 336 715 b 149 617 44 490 44 287 b 44 84 149 -43 336 -141 z"},"C":{"x_min":0,"x_max":730,"ha":730,"o":"m 399 -14 b 554 -14 643 53 709 144 l 563 248 b 521 197 478 163 405 163 b 307 163 238 245 238 350 l 238 352 b 238 454 307 537 405 537 b 472 537 518 505 558 455 l 704 568 b 642 654 550 714 407 714 b 195 714 38 554 38 350 l 38 348 b 38 139 199 -14 399 -14 z"},"W":{"x_min":0,"x_max":1117,"ha":1117,"o":"m 249 -5 l 418 -5 l 558 398 l 699 -5 l 868 -5 l 1102 700 l 901 700 l 779 295 l 644 702 l 477 702 l 342 295 l 220 700 l 15 700 z"},"A":{"x_min":0,"x_max":795,"ha":795,"o":"m 6 0 l 210 0 l 260 125 l 530 125 l 581 0 l 789 0 l 491 705 l 304 705 z m 317 276 l 396 475 l 474 276 z"},"f":{"x_min":0,"x_max":404,"ha":404,"o":"m 85 0 l 274 0 l 274 389 l 395 389 l 395 535 l 271 535 l 271 548 b 271 583 290 599 325 599 b 352 599 374 595 396 588 l 396 722 b 366 731 330 737 272 737 b 208 737 164 723 131 690 b 99 658 85 612 85 550 l 85 538 l 22 538 l 22 389 l 85 389 z"},"Q":{"x_min":0,"x_max":831,"ha":831,"o":"m 704 -21 l 802 88 l 730 149 b 770 206 792 276 792 350 l 792 352 b 792 553 632 714 416 714 b 200 714 38 551 38 350 l 38 348 b 38 147 198 -14 414 -14 b 494 -14 567 9 627 48 z m 416 158 b 309 158 237 247 237 348 l 237 350 b 237 451 308 539 414 539 b 522 539 595 450 595 348 l 595 346 b 595 322 591 299 583 278 l 488 364 l 390 254 l 487 171 b 466 163 442 158 416 158 z"},"w":{"x_min":0,"x_max":861,"ha":861,"o":"m 177 -4 l 340 -4 l 430 277 l 518 -4 l 682 -4 l 849 541 l 666 541 l 593 267 l 509 543 l 352 543 l 269 269 l 198 541 l 12 541 z"},"-":{"x_min":0,"x_max":408,"ha":408,"o":"m 40 229 l 368 229 l 368 396 l 40 396 z"},"E":{"x_min":0,"x_max":667,"ha":667,"o":"m 62 0 l 630 0 l 630 165 l 254 165 l 254 276 l 590 276 l 590 429 l 254 429 l 254 535 l 625 535 l 625 700 l 62 700 z"},"s":{"x_min":0,"x_max":514,"ha":514,"o":"m 266 -12 b 398 -12 487 50 487 169 l 487 171 b 487 276 402 313 295 343 b 238 360 207 370 207 391 l 207 393 b 207 408 222 419 251 419 b 294 419 355 400 411 369 l 476 489 b 414 529 332 552 253 552 b 128 552 36 488 36 373 l 36 371 b 36 262 121 226 228 198 b 285 182 315 173 315 152 l 315 150 b 315 131 300 121 267 121 b 211 121 143 142 81 183 l 10 68 b 85 14 175 -12 266 -12 z"},">":{"x_min":0,"x_max":640,"ha":640,"o":"m 80 66 l 577 264 l 577 440 l 80 638 l 80 461 l 407 351 l 80 242 z"},"l":{"x_min":0,"x_max":300,"ha":300,"o":"m 55 0 l 245 0 l 245 730 l 55 730 z"},"8":{"x_min":0,"x_max":630,"ha":630,"o":"m 315 -12 b 483 -12 603 69 603 194 l 603 196 b 603 283 554 330 483 363 b 537 393 579 439 579 515 l 579 517 b 579 629 472 712 315 712 b 158 712 51 629 51 517 l 51 515 b 51 439 93 393 147 363 b 72 331 27 280 27 195 l 27 193 b 27 71 147 -12 315 -12 z m 315 416 b 263 416 229 449 229 493 l 229 495 b 229 534 262 568 315 568 b 368 568 401 533 401 494 l 401 492 b 401 448 367 416 315 416 z m 315 133 b 250 133 214 170 214 212 l 214 214 b 214 259 256 290 315 290 b 374 290 416 259 416 214 l 416 212 b 416 170 380 133 315 133 z"},"\\":{"x_min":0,"x_max":535,"ha":535,"o":"m 419 -128 l 573 -128 l 130 798 l -24 798 z"},"e":{"x_min":0,"x_max":605,"ha":605,"o":"m 319 -13 b 427 -13 502 31 554 97 l 449 184 b 410 146 374 129 329 129 b 270 129 227 159 212 218 l 574 218 b 575 231 575 245 575 257 b 575 416 489 553 302 553 b 142 553 29 428 29 270 l 29 268 b 29 100 149 -13 319 -13 z m 209 315 b 219 374 253 413 303 413 b 355 413 390 375 397 315 z"},"b":{"x_min":0,"x_max":676,"ha":676,"o":"m 406 -12 b 534 -12 645 95 645 271 l 645 273 b 645 446 534 553 405 553 b 324 553 278 514 241 469 l 241 730 l 51 730 l 51 0 l 241 0 l 241 66 b 276 25 324 -12 406 -12 z m 347 147 b 286 147 237 198 237 270 l 237 272 b 237 343 286 394 347 394 b 409 394 458 343 458 272 l 458 270 b 458 197 409 147 347 147 z"},"%":{"x_min":0,"x_max":899,"ha":899,"o":"m 215 333 b 323 333 396 418 396 521 l 396 523 b 396 625 325 710 216 710 b 106 710 35 625 35 522 l 35 520 b 35 417 107 333 215 333 z m 683 -10 b 791 -10 864 76 864 178 l 864 180 b 864 283 793 367 684 367 b 574 367 503 282 503 179 l 503 177 b 503 75 575 -10 683 -10 z m 216 443 b 183 443 157 476 157 521 l 157 523 b 157 567 180 600 215 600 b 249 600 274 566 274 522 l 274 520 b 274 476 250 443 216 443 z m 684 100 b 651 100 625 134 625 178 l 625 180 b 625 225 647 257 683 257 b 717 257 742 224 742 179 l 742 177 b 742 133 718 100 684 100 z m 407 377 l 112 0 l 247 0 l 486 315 l 787 700 l 652 700 z"},"m":{"x_min":0,"x_max":971,"ha":971,"o":"m 51 0 l 241 0 l 241 294 b 241 353 273 384 318 384 b 363 384 392 353 392 294 l 392 0 l 582 0 l 582 294 b 582 353 615 384 660 384 b 705 384 734 353 734 294 l 734 0 l 924 0 l 924 355 b 924 481 854 553 739 553 b 660 553 605 519 558 465 b 529 521 474 553 402 553 b 326 553 276 512 241 467 l 241 541 l 51 541 z"},"#":{"x_min":0,"x_max":706,"ha":706,"o":"m 84 0 l 229 0 l 252 135 l 379 135 l 355 0 l 500 0 l 524 135 l 643 135 l 643 296 l 551 296 l 570 408 l 676 408 l 676 569 l 598 569 l 620 700 l 475 700 l 453 569 l 326 569 l 349 700 l 204 700 l 182 569 l 62 569 l 62 408 l 154 408 l 135 296 l 29 296 l 29 135 l 107 135 z m 275 292 l 296 412 l 429 412 l 409 292 z"},",":{"x_min":0,"x_max":284,"ha":284,"o":"m 35 -165 b 160 -161 241 -110 241 38 l 241 197 l 43 197 l 43 2 l 120 2 b 122 -52 87 -84 20 -92 z"},"n":{"x_min":0,"x_max":634,"ha":634,"o":"m 51 0 l 241 0 l 241 293 b 241 352 275 384 321 384 b 366 384 397 352 397 293 l 397 0 l 587 0 l 587 354 b 587 477 518 553 403 553 b 326 553 276 510 241 465 l 241 541 l 51 541 z"},"h":{"x_min":0,"x_max":634,"ha":634,"o":"m 51 0 l 241 0 l 241 293 b 241 352 275 384 321 384 b 366 384 397 352 397 293 l 397 0 l 587 0 l 587 354 b 587 477 518 553 403 553 b 326 553 276 512 241 467 l 241 730 l 51 730 z"},"z":{"x_min":0,"x_max":563,"ha":563,"o":"m 32 0 l 534 0 l 534 151 l 283 151 l 534 416 l 534 541 l 41 541 l 41 390 l 282 390 l 32 125 z"},"B":{"x_min":0,"x_max":715,"ha":715,"o":"m 62 0 l 423 0 b 590 0 688 73 688 193 l 688 195 b 688 290 634 338 549 366 b 611 393 657 441 657 522 l 657 524 b 657 572 640 609 612 637 b 571 678 509 700 421 700 l 62 700 z m 251 421 l 251 544 l 377 544 b 435 544 465 522 465 484 l 465 482 b 465 441 432 421 373 421 z m 251 156 l 251 285 l 399 285 b 464 285 494 260 494 222 l 494 220 b 494 179 460 156 401 156 z"},"K":{"x_min":0,"x_max":730,"ha":730,"o":"m 62 0 l 256 0 l 256 181 l 327 260 l 503 0 l 736 0 l 462 399 l 727 700 l 497 700 l 256 416 l 256 700 l 62 700 z"},"R":{"x_min":0,"x_max":719,"ha":719,"o":"m 62 0 l 256 0 l 256 212 l 341 212 l 482 0 l 706 0 l 539 244 b 626 281 683 352 683 459 l 683 461 b 683 530 662 584 621 624 b 574 672 500 700 393 700 l 62 700 z m 256 364 l 256 532 l 383 532 b 448 532 488 504 488 449 l 488 447 b 488 396 450 364 384 364 z"},"T":{"x_min":0,"x_max":660,"ha":660,"o":"m 233 0 l 427 0 l 427 530 l 637 530 l 637 700 l 23 700 l 23 530 l 233 530 z"},"P":{"x_min":0,"x_max":673,"ha":673,"o":"m 62 0 l 256 0 l 256 200 l 352 200 b 526 200 653 287 653 452 l 653 454 b 653 609 539 700 362 700 l 62 700 z m 256 352 l 256 537 l 347 537 b 417 537 459 505 459 445 l 459 443 b 459 388 417 352 348 352 z"},"|":{"x_min":0,"x_max":355,"ha":355,"o":"m 105 -128 l 250 -128 l 250 798 l 105 798 z"},"t":{"x_min":0,"x_max":431,"ha":431,"o":"m 266 -11 b 319 -11 364 1 398 20 l 398 169 b 375 158 351 151 326 151 b 291 151 274 167 274 205 l 274 388 l 400 388 l 400 541 l 274 541 l 274 678 l 84 678 l 84 541 l 20 541 l 20 388 l 84 388 l 84 168 b 84 39 152 -11 266 -11 z"},"M":{"x_min":0,"x_max":868,"ha":868,"o":"m 62 0 l 252 0 l 252 400 l 430 128 l 434 128 l 613 402 l 613 0 l 806 0 l 806 700 l 601 700 l 434 429 l 267 700 l 62 700 z"},"g":{"x_min":0,"x_max":676,"ha":676,"o":"m 317 -162 b 430 -162 506 -135 555 -86 b 603 -38 625 31 625 130 l 625 541 l 435 541 l 435 477 b 394 520 346 553 265 553 b 140 553 31 457 31 301 l 31 299 b 31 144 138 48 271 48 b 350 48 400 85 438 129 l 438 108 b 438 22 391 -25 296 -25 b 223 -25 165 -6 107 26 l 46 -100 b 124 -140 212 -162 317 -162 z m 328 194 b 263 194 217 238 217 298 l 217 300 b 217 360 263 405 328 405 b 392 405 438 361 438 301 l 438 299 b 438 239 392 194 328 194 z"},"j":{"x_min":0,"x_max":302,"ha":302,"o":"m 51 590 l 249 590 l 249 730 l 51 730 z m 52 -163 b 175 -163 245 -113 245 24 l 245 541 l 55 541 l 55 32 b 55 -15 36 -31 -1 -31 b -9 -31 -18 -31 -26 -30 l -26 -156 b -3 -159 22 -163 52 -163 z"},"i":{"x_min":0,"x_max":300,"ha":300,"o":"m 51 590 l 249 590 l 249 730 l 51 730 z m 55 0 l 245 0 l 245 541 l 55 541 z"},"y":{"x_min":0,"x_max":626,"ha":626,"o":"m 211 -163 b 319 -163 370 -113 417 13 l 615 541 l 420 541 l 318 215 l 210 541 l 11 541 l 223 10 b 211 -7 198 -12 179 -12 b 158 -12 126 -1 96 17 l 37 -116 b 87 -144 144 -163 211 -163 z"},"@":{"x_min":0,"x_max":965,"ha":965,"o":"m 491 -162 b 595 -162 679 -134 756 -87 l 736 -55 b 661 -99 590 -122 491 -122 b 253 -122 87 52 87 275 b 87 496 255 674 488 674 b 716 674 877 510 877 325 b 877 192 824 122 759 122 b 718 122 694 148 694 181 b 694 196 696 210 698 225 l 744 483 l 589 507 l 577 446 b 551 487 508 520 443 520 b 324 520 222 403 222 260 b 222 138 301 59 405 59 b 467 59 514 89 552 133 b 576 92 622 57 706 57 b 815 57 919 144 919 325 b 919 530 736 714 488 714 b 236 714 45 516 45 275 b 45 33 233 -162 491 -162 z m 455 194 b 413 194 382 222 382 272 b 382 335 424 385 478 385 b 520 385 551 356 551 309 b 551 245 508 194 455 194 z"},".":{"x_min":0,"x_max":284,"ha":284,"o":"m 43 0 l 241 0 l 241 195 l 43 195 z"},"p":{"x_min":0,"x_max":676,"ha":676,"o":"m 51 -160 l 241 -160 l 241 66 b 276 25 324 -12 406 -12 b 534 -12 645 95 645 271 l 645 273 b 645 446 534 553 405 553 b 324 553 278 514 241 469 l 241 541 l 51 541 z m 347 147 b 286 147 237 198 237 270 l 237 272 b 237 343 286 394 347 394 b 409 394 458 343 458 272 l 458 270 b 458 197 409 147 347 147 z"},"X":{"x_min":0,"x_max":732,"ha":732,"o":"m 11 0 l 229 0 l 364 211 l 498 0 l 721 0 l 481 358 l 711 700 l 493 700 l 368 503 l 244 700 l 21 700 l 251 356 z"},"*":{"x_min":0,"x_max":425,"ha":425,"o":"m 160 339 l 265 339 l 240 471 l 343 383 l 397 475 l 270 520 l 397 565 l 343 658 l 240 570 l 265 702 l 160 702 l 185 570 l 82 658 l 28 565 l 155 520 l 28 475 l 82 383 l 185 471 z"},"Y":{"x_min":0,"x_max":723,"ha":723,"o":"m 264 0 l 459 0 l 459 265 l 725 700 l 508 700 l 363 445 l 219 700 l -2 700 l 264 262 z"},"c":{"x_min":0,"x_max":569,"ha":569,"o":"m 312 -13 b 431 -13 503 37 553 111 l 426 203 b 396 168 367 147 322 147 b 258 147 214 200 214 270 l 214 272 b 214 338 259 392 320 392 b 366 392 395 371 421 335 l 550 431 b 504 504 430 552 319 552 b 148 552 29 423 29 270 l 29 268 b 29 115 149 -13 312 -13 z"},"!":{"x_min":0,"x_max":324,"ha":324,"o":"m 112 228 l 212 228 l 270 615 l 270 700 l 54 700 l 54 615 z m 63 0 l 261 0 l 261 170 l 63 170 z"},"/":{"x_min":0,"x_max":535,"ha":535,"o":"m -38 -128 l 116 -128 l 559 798 l 405 798 z"},"[":{"x_min":0,"x_max":457,"ha":457,"o":"m 66 -130 l 412 -130 l 412 -1 l 236 -1 l 236 571 l 412 571 l 412 700 l 66 700 z"},"6":{"x_min":0,"x_max":662,"ha":662,"o":"m 341 -14 b 494 -14 619 81 619 238 l 619 240 b 619 380 511 458 388 458 b 319 458 274 432 237 404 b 246 492 287 553 369 553 b 425 553 465 532 508 500 l 599 637 b 532 687 464 714 366 714 b 147 714 41 548 41 330 l 41 328 b 41 197 75 118 127 66 b 177 16 242 -14 341 -14 z m 333 137 b 272 137 234 177 234 228 l 234 230 b 234 280 270 319 331 319 b 392 319 430 279 430 229 l 430 227 b 430 176 394 137 333 137 z"},"r":{"x_min":0,"x_max":428,"ha":428,"o":"m 51 0 l 241 0 l 241 168 b 241 293 297 350 396 350 l 412 350 l 412 550 b 322 554 272 506 241 432 l 241 541 l 51 541 z"},"2":{"x_min":0,"x_max":624,"ha":624,"o":"m 33 0 l 587 0 l 587 158 l 298 158 l 418 242 b 522 317 580 375 580 487 l 580 489 b 580 621 475 712 322 712 b 186 712 112 659 37 562 l 168 453 b 223 516 260 543 307 543 b 354 543 385 516 385 472 b 385 430 360 397 295 346 l 33 146 z"},"{":{"x_min":0,"x_max":490,"ha":490,"o":"m 429 -141 l 458 -30 b 351 -6 334 21 334 83 b 334 100 337 132 337 153 b 337 226 298 267 225 287 b 298 307 337 348 337 421 b 337 442 334 474 334 491 b 334 553 351 580 458 604 l 429 715 b 229 691 165 632 165 522 b 165 507 168 465 168 448 b 168 372 128 350 50 350 l 34 350 l 34 224 l 50 224 b 128 224 168 202 168 126 b 168 109 165 67 165 52 b 165 -58 229 -117 429 -141 z"},"9":{"x_min":0,"x_max":662,"ha":662,"o":"m 297 -14 b 507 -14 621 142 621 371 l 621 373 b 621 502 588 582 537 632 b 484 685 424 714 322 714 b 162 714 43 614 43 459 l 43 457 b 43 320 142 236 278 236 b 340 236 390 259 426 293 b 417 203 374 147 294 147 b 238 147 192 165 144 203 l 53 69 b 117 19 193 -14 297 -14 z m 331 375 b 270 375 231 414 231 467 l 231 469 b 231 523 268 563 329 563 b 390 563 429 522 429 468 l 429 466 b 429 415 392 375 331 375 z"}," ":{"x_min":0,"x_max":277,"ha":277,"o":""},"I":{"x_min":0,"x_max":327,"ha":327,"o":"m 66 0 l 261 0 l 261 700 l 66 700 z"},"H":{"x_min":0,"x_max":761,"ha":761,"o":"m 62 0 l 256 0 l 256 266 l 505 266 l 505 0 l 699 0 l 699 700 l 505 700 l 505 438 l 256 438 l 256 700 l 62 700 z"},"4":{"x_min":0,"x_max":689,"ha":689,"o":"m 384 0 l 572 0 l 572 136 l 661 136 l 661 281 l 572 281 l 572 705 l 376 705 l 13 273 l 45 136 l 384 136 z m 217 280 l 384 481 l 384 280 z"},"~":{"x_min":0,"x_max":505,"ha":505,"o":"m 133 220 b 146 251 155 266 183 266 b 216 266 280 227 340 227 b 408 227 442 277 464 376 l 372 401 b 359 370 349 355 321 355 b 289 355 225 394 165 394 b 97 394 63 344 41 245 z"},"D":{"x_min":0,"x_max":765,"ha":765,"o":"m 62 0 l 328 0 b 580 0 727 150 727 352 l 727 354 b 727 556 582 700 332 700 l 62 700 z m 256 172 l 256 528 l 335 528 b 451 528 528 463 528 351 l 528 349 b 528 236 451 172 335 172 z"},"^":{"x_min":0,"x_max":500,"ha":500,"o":"m 42 493 l 173 493 l 249 590 l 325 493 l 458 493 l 314 699 l 186 699 z"},"0":{"x_min":0,"x_max":730,"ha":730,"o":"m 364 -14 b 564 -14 689 152 689 350 l 689 352 b 689 550 565 714 366 714 b 167 714 41 548 41 350 l 41 348 b 41 150 164 -14 364 -14 z m 366 158 b 288 158 236 238 236 350 l 236 352 b 236 464 287 542 364 542 b 441 542 494 461 494 350 l 494 348 b 494 237 444 158 366 158 z"},"F":{"x_min":0,"x_max":648,"ha":648,"o":"m 62 0 l 256 0 l 256 250 l 587 250 l 587 411 l 256 411 l 256 530 l 622 530 l 622 700 l 62 700 z"},"`":{"x_min":0,"x_max":500,"ha":500,"o":"m 236 588 l 368 588 l 265 772 l 89 715 z"},"k":{"x_min":0,"x_max":603,"ha":603,"o":"m 51 0 l 241 0 l 241 127 l 290 184 l 399 0 l 608 0 l 415 324 l 603 541 l 388 541 l 241 360 l 241 730 l 51 730 z"},"u":{"x_min":0,"x_max":634,"ha":634,"o":"m 231 -12 b 308 -12 358 29 393 74 l 393 0 l 583 0 l 583 541 l 393 541 l 393 248 b 393 189 359 157 314 157 b 268 157 237 189 237 248 l 237 541 l 47 541 l 47 187 b 47 64 116 -12 231 -12 z"},"]":{"x_min":0,"x_max":457,"ha":457,"o":"m 45 -130 l 391 -130 l 391 700 l 45 700 l 45 571 l 221 571 l 221 -1 l 45 -1 z"},"U":{"x_min":0,"x_max":758,"ha":758,"o":"m 377 -13 b 576 -13 705 86 705 312 l 705 700 l 508 700 l 508 306 b 508 208 457 162 379 162 b 301 162 250 210 250 311 l 250 700 l 53 700 l 53 307 b 53 88 178 -13 377 -13 z"},"o":{"x_min":0,"x_max":656,"ha":656,"o":"m 327 -13 b 501 -13 627 116 627 270 l 627 272 b 627 426 502 553 329 553 b 155 553 29 424 29 270 l 29 268 b 29 114 154 -13 327 -13 z m 329 148 b 262 148 214 204 214 270 l 214 272 b 214 337 258 392 327 392 b 394 392 442 336 442 270 l 442 268 b 442 203 398 148 329 148 z"},"N":{"x_min":0,"x_max":785,"ha":785,"o":"m 62 0 l 254 0 l 254 384 l 553 0 l 723 0 l 723 700 l 531 700 l 531 330 l 243 700 l 62 700 z"},"+":{"x_min":0,"x_max":640,"ha":640,"o":"m 233 94 l 407 94 l 407 268 l 583 268 l 583 436 l 407 436 l 407 610 l 233 610 l 233 436 l 57 436 l 57 268 l 233 268 z"},"G":{"x_min":0,"x_max":769,"ha":769,"o":"m 419 -14 b 546 -14 649 33 723 94 l 723 409 l 401 409 l 401 267 l 539 267 l 539 182 b 510 163 474 153 427 153 b 316 153 237 234 237 347 l 237 349 b 237 456 315 541 416 541 b 485 541 535 517 585 475 l 699 612 b 625 676 538 714 415 714 b 198 714 38 554 38 350 l 38 348 b 38 136 201 -14 419 -14 z"},"q":{"x_min":0,"x_max":676,"ha":676,"o":"m 435 -160 l 625 -160 l 625 541 l 435 541 l 435 475 b 399 516 351 553 269 553 b 141 553 31 446 31 270 l 31 268 b 31 95 142 -12 270 -12 b 351 -12 398 27 435 72 z m 328 147 b 267 147 217 198 217 270 l 217 272 b 217 344 267 394 328 394 b 389 394 438 343 438 272 l 438 270 b 438 198 389 147 328 147 z"},"d":{"x_min":0,"x_max":676,"ha":676,"o":"m 270 -12 b 351 -12 398 27 435 72 l 435 0 l 625 0 l 625 730 l 435 730 l 435 475 b 399 516 351 553 269 553 b 141 553 31 446 31 270 l 31 268 b 31 95 142 -12 270 -12 z m 328 147 b 267 147 217 198 217 270 l 217 272 b 217 344 267 394 328 394 b 389 394 438 343 438 272 l 438 270 b 438 198 389 147 328 147 z"},"1":{"x_min":0,"x_max":422,"ha":422,"o":"m 163 0 l 354 0 l 354 705 l 213 705 l 8 647 l 45 497 l 163 524 z"},"5":{"x_min":0,"x_max":630,"ha":630,"o":"m 303 -14 b 473 -14 592 79 592 235 l 592 237 b 592 389 478 459 352 459 b 305 459 272 449 240 434 l 246 540 l 561 540 l 561 700 l 93 700 l 73 345 l 188 281 b 221 301 257 316 300 316 b 361 316 403 285 403 235 l 403 233 b 403 183 364 151 300 151 b 241 151 187 179 130 227 l 19 97 b 92 29 179 -14 303 -14 z"}}}
